<?xml version="1.0" encoding="iso-8859-1"?>
<!-- Generator: Adobe Illustrator 19.0.0, SVG Export Plug-In . SVG Version: 6.00 Build 0)  -->
<svg version="1.1" id="Layer_1" xmlns="http://www.w3.org/2000/svg" xmlns:xlink="http://www.w3.org/1999/xlink" x="0px" y="0px"
	 viewBox="0 0 512 512" style="enable-background:new 0 0 512 512;" xml:space="preserve">
<g>
	<g>
		<path d="M256,355.404c-13.516,0-24.511,10.996-24.511,24.511c0,10.651,6.831,19.733,16.34,23.105v25.916
			c0,4.513,3.658,8.17,8.17,8.17c4.512,0,8.17-3.657,8.17-8.17V403.02c9.509-3.373,16.34-12.455,16.34-23.105
			C280.511,366.4,269.516,355.404,256,355.404z M256,388.085c-4.506,0-8.17-3.665-8.17-8.17c0-4.506,3.665-8.17,8.17-8.17
			c4.506,0,8.17,3.665,8.17,8.17C264.17,384.42,260.506,388.085,256,388.085z"/>
	</g>
</g>
<g>
	<g>
		<path d="M373.106,212.426c40.546,0,73.532-32.986,73.532-73.532c0-40.546-32.986-73.532-73.532-73.532
			c-6.157,0-12.229,0.759-18.137,2.266c-7.138-18.216-19.388-34.436-35.089-46.275C301.352,7.384,279.263,0,256,0
			c-23.263,0-45.352,7.384-63.88,21.354c-15.701,11.838-27.953,28.059-35.089,46.275c-5.908-1.508-11.98-2.267-18.137-2.267
			c-40.546,0-73.532,32.986-73.532,73.532c0,40.546,32.986,73.532,73.532,73.532c4.512,0,8.17-3.657,8.17-8.17
			c0-4.513-3.658-8.17-8.17-8.17c-31.536,0-57.191-25.657-57.191-57.192s25.656-57.191,57.191-57.191
			c6.987,0,13.832,1.257,20.342,3.738c2.117,0.805,4.475,0.697,6.511-0.302c2.035-1,3.562-2.799,4.218-4.97
			C181.324,42.588,216.703,16.34,256,16.34c39.297,0,74.676,26.247,86.036,63.828c0.656,2.17,2.183,3.97,4.218,4.97
			c2.035,1,4.395,1.109,6.511,0.302c6.51-2.48,13.354-3.738,20.342-3.738c31.536,0,57.191,25.657,57.191,57.191
			s-25.656,57.192-57.191,57.192h-24.892c-4.153-47.242-43.912-84.426-92.214-84.426c-51.057,0-92.596,41.538-92.596,92.596v76.255
			h-24.511c-4.512,0-8.17,3.657-8.17,8.17V503.83c0,4.513,3.658,8.17,8.17,8.17h234.213c4.512,0,8.17-3.657,8.17-8.17V288.681
			c0-4.513-3.658-8.17-8.17-8.17h-24.511v-68.085H373.106z M179.745,204.255C179.745,162.208,213.953,128,256,128
			s76.255,34.208,76.255,76.255v76.255h-16.34v-76.255c0-33.037-26.878-59.915-59.915-59.915s-59.915,26.878-59.915,59.915v76.255
			h-16.34V204.255z M275.064,196.085h-61.859c3.837-20.134,21.561-35.404,42.796-35.404c24.027,0,43.574,19.548,43.574,43.574
			v76.255h-87.149v-68.085h62.638c4.512,0,8.17-3.657,8.17-8.17C283.234,199.742,279.576,196.085,275.064,196.085z M364.936,296.851
			V495.66H147.064V296.851H364.936z"/>
	</g>
</g>
<g>
	<g>
		<circle cx="212.426" cy="462.979" r="8.17"/>
	</g>
</g>
<g>
	<g>
		<circle cx="179.745" cy="430.298" r="8.17"/>
	</g>
</g>
<g>
</g>
<g>
</g>
<g>
</g>
<g>
</g>
<g>
</g>
<g>
</g>
<g>
</g>
<g>
</g>
<g>
</g>
<g>
</g>
<g>
</g>
<g>
</g>
<g>
</g>
<g>
</g>
<g>
</g>
</svg>
