<?xml version="1.0" encoding="iso-8859-1"?>
<!-- Generator: Adobe Illustrator 19.0.0, SVG Export Plug-In . SVG Version: 6.00 Build 0)  -->
<svg version="1.1" id="Layer_1" xmlns="http://www.w3.org/2000/svg" xmlns:xlink="http://www.w3.org/1999/xlink" x="0px" y="0px"
	 viewBox="0 0 315 315" style="enable-background:new 0 0 315 315;" xml:space="preserve">
<g>
	<g>
		<g>
			<path d="M307.5,53.5H81V41c0-4.142-3.357-7.5-7.5-7.5h-36c-4.143,0-7.5,3.358-7.5,7.5v12.5H7.5C3.357,53.5,0,56.858,0,61v213
				c0,4.142,3.357,7.5,7.5,7.5h300c4.143,0,7.5-3.358,7.5-7.5V61C315,56.858,311.643,53.5,307.5,53.5z M45,48.5h21v5H45V48.5z
				 M300,266.5H15v-198c11.041,0,271.885,0,285,0V266.5z"/>
			<path d="M157.5,228.5c36.117,0,65.5-29.383,65.5-65.5s-29.383-65.5-65.5-65.5S92,126.883,92,163S121.383,228.5,157.5,228.5z
				 M157.5,112.5c27.846,0,50.5,22.654,50.5,50.5s-22.654,50.5-50.5,50.5S107,190.846,107,163S129.654,112.5,157.5,112.5z"/>
			<path d="M157.5,203.5c22.332,0,40.5-18.169,40.5-40.5s-18.168-40.5-40.5-40.5c-22.332,0-40.5,18.169-40.5,40.5
				S135.168,203.5,157.5,203.5z M157.5,137.5c14.061,0,25.5,11.439,25.5,25.5c0,14.061-11.439,25.5-25.5,25.5
				c-14.061,0-25.5-11.439-25.5-25.5C132,148.939,143.439,137.5,157.5,137.5z"/>
			<path d="M245.5,130.5h32c4.143,0,7.5-3.358,7.5-7.5V91c0-4.142-3.357-7.5-7.5-7.5h-32c-4.143,0-7.5,3.358-7.5,7.5v32
				C238,127.142,241.357,130.5,245.5,130.5z M253,98.5h17v17h-17V98.5z"/>
			<path d="M38.5,230.5h29c4.143,0,7.5-3.358,7.5-7.5c0-4.142-3.357-7.5-7.5-7.5h-29c-4.143,0-7.5,3.358-7.5,7.5
				C31,227.142,34.357,230.5,38.5,230.5z"/>
			<path d="M38.5,251.5h29c4.143,0,7.5-3.358,7.5-7.5c0-4.142-3.357-7.5-7.5-7.5h-29c-4.143,0-7.5,3.358-7.5,7.5
				C31,248.142,34.357,251.5,38.5,251.5z"/>
		</g>
	</g>
</g>
<g>
</g>
<g>
</g>
<g>
</g>
<g>
</g>
<g>
</g>
<g>
</g>
<g>
</g>
<g>
</g>
<g>
</g>
<g>
</g>
<g>
</g>
<g>
</g>
<g>
</g>
<g>
</g>
<g>
</g>
</svg>
