<?xml version="1.0" encoding="iso-8859-1"?>
<!-- Generator: Adobe Illustrator 18.0.0, SVG Export Plug-In . SVG Version: 6.00 Build 0)  -->
<!DOCTYPE svg PUBLIC "-//W3C//DTD SVG 1.1//EN" "http://www.w3.org/Graphics/SVG/1.1/DTD/svg11.dtd">
<svg version="1.1" id="Capa_1" xmlns="http://www.w3.org/2000/svg" xmlns:xlink="http://www.w3.org/1999/xlink" x="0px" y="0px"
	 viewBox="0 0 319.595 319.595" style="enable-background:new 0 0 319.595 319.595;" xml:space="preserve">
<path d="M316.666,160.458l-13.494-13.494l0.03-0.03c11.212-11.212,11.212-29.383,0-40.595l-89.995-89.995
	c-11.211-11.212-29.382-11.212-40.595,0l-14.407,14.408c-11.211,11.211-11.212,29.383-0.001,40.594l89.995,89.995
	c11.212,11.212,29.384,11.212,40.595,0l0.235-0.234l6.423,6.423l-29.407,29.407l-103.159-52.535
	c-3.861-1.967-8.546-1.223-11.609,1.841l-23.132,23.132c-12.392-6.404-27.996-4.415-38.386,5.975L9.643,255.465
	c-12.857,12.857-12.857,33.699,0.001,46.556c12.852,12.853,33.698,12.853,46.552,0.001l80.12-80.121
	c10.389-10.388,12.376-25.995,5.974-38.385l17.995-17.995l103.159,52.534c3.86,1.965,8.546,1.222,11.609-1.84l41.615-41.614
	c1.875-1.875,2.929-4.419,2.929-7.071C319.595,164.877,318.541,162.334,316.666,160.458z"/>
<g>
</g>
<g>
</g>
<g>
</g>
<g>
</g>
<g>
</g>
<g>
</g>
<g>
</g>
<g>
</g>
<g>
</g>
<g>
</g>
<g>
</g>
<g>
</g>
<g>
</g>
<g>
</g>
<g>
</g>
</svg>
